<svg xmlns="http://www.w3.org/2000/svg" viewBox="0 0 64 64">
  <defs>
    <linearGradient id="bg" x1="0" y1="0" x2="1" y2="1">
      <stop offset="0%" stop-color="#10202b"/>
      <stop offset="100%" stop-color="#173847"/>
    </linearGradient>
    <linearGradient id="bottle" x1="0" y1="0" x2="0" y2="1">
      <stop offset="0%" stop-color="#fff3c2"/>
      <stop offset="100%" stop-color="#f3d564"/>
    </linearGradient>
    <linearGradient id="lemon" x1="0" y1="0" x2="1" y2="1">
      <stop offset="0%" stop-color="#ffe56d"/>
      <stop offset="100%" stop-color="#f7b500"/>
    </linearGradient>
  </defs>

  <rect width="64" height="64" rx="16" fill="url(#bg)"/>

  <path
    d="M27 12h10v7c0 2 1 3 3 5 3 3 5 7 5 12v13c0 5-4 9-9 9H28c-5 0-9-4-9-9V36c0-5 2-9 5-12 2-2 3-3 3-5v-7Z"
    fill="url(#bottle)"
  />
  <rect x="29" y="8" width="6" height="6" rx="2" fill="#d9e7ef"/>
  <rect x="24" y="30" width="16" height="18" rx="7" fill="#fff6d8" opacity=".4"/>

  <circle cx="44" cy="44" r="11" fill="url(#lemon)"/>
  <circle cx="44" cy="44" r="8" fill="#fff3b0"/>
  <path d="M44 36v16M36 44h16M38.6 38.6l10.8 10.8M49.4 38.6 38.6 49.4" stroke="#f7b500" stroke-width="1.6" stroke-linecap="round"/>

  <path d="M40 18c4-2 8 0 9 4-4 1-7 0-9-4Z" fill="#7bc96f"/>
</svg>
